<?xml version="1.0" encoding="UTF-8"?>
<!DOCTYPE svg PUBLIC "-//W3C//DTD SVG 1.1//EN" "http://www.w3.org/Graphics/SVG/1.1/DTD/svg11.dtd">
<svg xmlns="http://www.w3.org/2000/svg" version="1.1" width="632px" height="395px" style="shape-rendering:geometricPrecision; text-rendering:geometricPrecision; image-rendering:optimizeQuality; fill-rule:evenodd; clip-rule:evenodd" xmlns:xlink="http://www.w3.org/1999/xlink">
<g><path style="opacity:0.373" fill="#272727" d="M 131.5,4.5 C 131.027,5.90632 130.027,6.57298 128.5,6.5C 128.973,5.09368 129.973,4.42702 131.5,4.5 Z"/></g>
<g><path style="opacity:0.009" fill="#0d0d0d" d="M 133.5,5.5 C 133.882,15.9101 134.882,26.2435 136.5,36.5C 135.5,36.5 134.5,36.5 133.5,36.5C 133.5,33.1667 133.5,29.8333 133.5,26.5C 133.5,19.5 133.5,12.5 133.5,5.5 Z"/></g>
<g><path style="opacity:0.995" fill="#979797" d="M 131.5,4.5 C 132.167,11.8333 132.833,19.1667 133.5,26.5C 133.5,29.8333 133.5,33.1667 133.5,36.5C 110.171,49.1645 86.838,61.8312 63.5,74.5C 64.1098,73.609 64.4431,72.609 64.5,71.5C 66.2503,70.3406 67.2503,68.674 67.5,66.5C 68.9063,66.0269 69.573,65.0269 69.5,63.5C 70.9063,63.0269 71.573,62.0269 71.5,60.5C 71.8333,59.5 72.5,58.8333 73.5,58.5C 75.9501,56.3709 77.6167,53.7043 78.5,50.5C 79.9063,50.0269 80.573,49.0269 80.5,47.5C 81.9063,47.0269 82.573,46.0269 82.5,44.5C 84.8218,43.1979 86.1551,41.1979 86.5,38.5C 86.5,37.8333 86.8333,37.5 87.5,37.5C 89.9353,35.729 91.602,33.3956 92.5,30.5C 92.5,30.1667 92.5,29.8333 92.5,29.5C 94.2624,28.7377 95.2624,27.4044 95.5,25.5C 102.84,19.8254 110.84,15.1587 119.5,11.5C 121.027,11.573 122.027,10.9063 122.5,9.5C 124.181,7.99249 126.181,6.99249 128.5,6.5C 130.027,6.57298 131.027,5.90632 131.5,4.5 Z"/></g>
<g><path style="opacity:0.22" fill="#2b2b2b" d="M 122.5,9.5 C 122.027,10.9063 121.027,11.573 119.5,11.5C 119.973,10.0937 120.973,9.42702 122.5,9.5 Z"/></g>
<g><path style="opacity:0.293" fill="#3b3b3b" d="M 131.5,4.5 C 132.623,3.24258 133.289,3.57591 133.5,5.5C 133.5,12.5 133.5,19.5 133.5,26.5C 132.833,19.1667 132.167,11.8333 131.5,4.5 Z"/></g>
<g><path style="opacity:0.365" fill="#272727" d="M 246.5,25.5 C 244.315,25.7036 242.315,26.3702 240.5,27.5C 241.92,24.6511 243.92,23.9844 246.5,25.5 Z"/></g>
<g><path style="opacity:0.224" fill="#2e2e2e" d="M 95.5,25.5 C 95.2624,27.4044 94.2624,28.7377 92.5,29.5C 92.7376,27.5956 93.7376,26.2623 95.5,25.5 Z"/></g>
<g><path style="opacity:1" fill="#989898" d="M 246.5,25.5 C 246.302,50.0167 246.969,74.35 248.5,98.5C 248.483,117.682 249.15,136.682 250.5,155.5C 251.053,165.358 250.387,175.024 248.5,184.5C 247.791,185.404 246.791,185.737 245.5,185.5C 238.805,189.848 231.805,193.681 224.5,197C 223.262,197.69 223.262,198.19 224.5,198.5C 214.177,203.167 204.177,208.667 194.5,215C 193.544,218.394 193.211,221.894 193.5,225.5C 192.679,222.359 192.179,219.025 192,215.5C 188.359,218.991 184.192,221.658 179.5,223.5C 161.871,220.275 144.371,216.608 127,212.5C 126.095,216.255 125.928,219.921 126.5,223.5C 121.095,224.068 115.762,225.068 110.5,226.5C 103.374,223.289 96.3745,219.789 89.5,216C 86.0493,215.253 85.716,215.92 88.5,218C 118.568,233.784 149.068,248.951 180,263.5C 194.539,259.758 209.039,255.925 223.5,252C 213.631,246.899 203.631,242.066 193.5,237.5C 193.5,236.833 193.5,236.167 193.5,235.5C 204.197,240.516 214.864,245.516 225.5,250.5C 221.653,260.886 218.653,271.552 216.5,282.5C 215.209,282.263 214.209,282.596 213.5,283.5C 211.958,284.301 210.292,284.634 208.5,284.5C 203.562,285.231 198.895,286.565 194.5,288.5C 193.167,289.167 192.167,290.167 191.5,291.5C 190.486,292.674 189.153,293.34 187.5,293.5C 185.064,293.317 182.897,293.984 181,295.5C 180.184,300.684 180.35,305.684 181.5,310.5C 181.5,310.833 181.5,311.167 181.5,311.5C 181.219,319.642 181.219,327.976 181.5,336.5C 192.218,334.038 202.885,331.372 213.5,328.5C 214.404,329.209 214.737,330.209 214.5,331.5C 211.215,331.928 208.215,332.928 205.5,334.5C 203.299,335.566 200.965,336.233 198.5,336.5C 194.076,336.272 190.076,337.272 186.5,339.5C 183.888,340.371 181.221,341.037 178.5,341.5C 175.219,341.42 172.219,342.087 169.5,343.5C 168.791,344.404 167.791,344.737 166.5,344.5C 163.918,344.025 161.918,344.692 160.5,346.5C 160.167,346.5 159.833,346.5 159.5,346.5C 156.219,346.42 153.219,347.087 150.5,348.5C 147.604,349.775 144.604,349.775 141.5,348.5C 139.236,346.686 136.903,344.853 134.5,343C 133.207,342.51 131.873,342.343 130.5,342.5C 127.563,341.528 124.897,340.195 122.5,338.5C 122.5,338.167 122.5,337.833 122.5,337.5C 122.735,336.903 123.235,336.57 124,336.5C 125.5,337 127,337.5 128.5,338C 134.142,341.655 140.142,344.489 146.5,346.5C 156.971,343.957 167.304,340.957 177.5,337.5C 162.894,329.698 148.228,322.198 133.5,315C 130.941,312.897 128.274,311.064 125.5,309.5C 136.241,308.754 146.574,306.254 156.5,302C 157.701,301.097 158.535,299.931 159,298.5C 160.093,291.527 159.093,284.861 156,278.5C 154.54,276.534 152.873,274.868 151,273.5C 143.45,274.936 135.95,276.602 128.5,278.5C 126.547,277.844 124.547,277.511 122.5,277.5C 123.676,268.863 121.342,261.363 115.5,255C 106.14,256.171 96.8071,257.671 87.5,259.5C 87.8016,256.941 87.4682,254.607 86.5,252.5C 78.2852,237.592 75.1186,221.592 77,204.5C 73.6358,203.261 70.1358,202.594 66.5,202.5C 65.715,171.653 64.3817,140.986 62.5,110.5C 62.5,110.167 62.5,109.833 62.5,109.5C 62.5,98.5 62.5,87.5 62.5,76.5C 100.08,82.3415 137.58,88.6749 175,95.5C 176.107,95.4148 177.107,95.0814 178,94.5C 187.645,79.359 197.479,64.359 207.5,49.5C 208.338,49.1583 208.672,48.4916 208.5,47.5C 209.906,47.0269 210.573,46.0269 210.5,44.5C 212.086,43.5868 213.586,43.5868 215,44.5C 216.487,43.7471 216.654,42.9138 215.5,42C 216.449,41.3828 217.282,41.5494 218,42.5C 218.662,41.0161 219.496,39.6828 220.5,38.5C 222.153,38.3404 223.486,37.6737 224.5,36.5C 224.842,35.6618 225.508,35.3284 226.5,35.5C 229.004,34.4161 231.337,33.0828 233.5,31.5C 233.973,30.0937 234.973,29.427 236.5,29.5C 238.153,29.3404 239.486,28.6737 240.5,27.5C 242.315,26.3702 244.315,25.7036 246.5,25.5 Z"/></g>
<g><path style="opacity:0.275" fill="#2a2a2a" d="M 240.5,27.5 C 239.486,28.6737 238.153,29.3404 236.5,29.5C 237.287,27.8958 238.62,27.2291 240.5,27.5 Z"/></g>
<g><path style="opacity:0.655" fill="#4d4d4d" d="M 92.5,30.5 C 91.602,33.3956 89.9353,35.729 87.5,37.5C 88.0102,34.3257 89.6769,31.9923 92.5,30.5 Z"/></g>
<g><path style="opacity:0.424" fill="#3d3d3d" d="M 233.5,31.5 C 231.337,33.0828 229.004,34.4161 226.5,35.5C 228.052,32.8881 230.386,31.5548 233.5,31.5 Z"/></g>
<g><path style="opacity:1" fill="#b4b4b4" d="M 133.5,36.5 C 134.5,36.5 135.5,36.5 136.5,36.5C 136.833,36.5 137.167,36.5 137.5,36.5C 142.525,38.5036 147.858,39.5036 153.5,39.5C 157.733,39.5387 161.733,40.2053 165.5,41.5C 170.844,43.6329 176.511,44.6329 182.5,44.5C 184.621,44.3253 186.621,44.6586 188.5,45.5C 194.558,47.5795 200.891,48.9128 207.5,49.5C 197.479,64.359 187.645,79.359 178,94.5C 177.107,95.0814 176.107,95.4148 175,95.5C 137.58,88.6749 100.08,82.3415 62.5,76.5C 62.8333,75.8333 63.1667,75.1667 63.5,74.5C 86.838,61.8312 110.171,49.1645 133.5,36.5 Z"/></g>
<g><path style="opacity:0.224" fill="#3b3b3b" d="M 137.5,36.5 C 143.116,36.6556 148.449,37.6556 153.5,39.5C 147.858,39.5036 142.525,38.5036 137.5,36.5 Z"/></g>
<g><path style="opacity:0.212" fill="#363636" d="M 224.5,36.5 C 223.486,37.6737 222.153,38.3404 220.5,38.5C 221.287,36.8958 222.62,36.2291 224.5,36.5 Z"/></g>
<g><path style="opacity:0.412" fill="#343434" d="M 86.5,38.5 C 86.1551,41.1979 84.8218,43.1979 82.5,44.5C 83.3403,42.1475 84.6736,40.1475 86.5,38.5 Z"/></g>
<g><path style="opacity:0.241" fill="#3a3a3a" d="M 165.5,41.5 C 171.46,41.5476 177.127,42.5476 182.5,44.5C 176.511,44.6329 170.844,43.6329 165.5,41.5 Z"/></g>
<g><path style="opacity:0.832" fill="#656565" d="M 220.5,38.5 C 219.496,39.6828 218.662,41.0161 218,42.5C 217.282,41.5494 216.449,41.3828 215.5,42C 216.654,42.9138 216.487,43.7471 215,44.5C 213.586,43.5868 212.086,43.5868 210.5,44.5C 213.242,41.5787 216.575,39.5787 220.5,38.5 Z"/></g>
<g><path style="opacity:0.527" fill="#484848" d="M 246.5,25.5 C 247.326,30.3165 247.826,35.3165 248,40.5C 248.5,56.8299 248.667,73.1633 248.5,89.5C 248.5,92.5 248.5,95.5 248.5,98.5C 246.969,74.35 246.302,50.0167 246.5,25.5 Z"/></g>
<g><path style="opacity:0.286" fill="#393939" d="M 210.5,44.5 C 210.573,46.0269 209.906,47.0269 208.5,47.5C 208.427,45.9731 209.094,44.9731 210.5,44.5 Z"/></g>
<g><path style="opacity:0.118" fill="#272727" d="M 82.5,44.5 C 82.573,46.0269 81.9063,47.0269 80.5,47.5C 80.427,45.9731 81.0937,44.9731 82.5,44.5 Z"/></g>
<g><path style="opacity:0.173" fill="#313131" d="M 464.5,49.5 C 462.418,49.528 460.584,48.8613 459,47.5C 456.379,48.9915 453.545,49.6582 450.5,49.5C 455.231,45.805 459.897,45.805 464.5,49.5 Z"/></g>
<g><path style="opacity:0.239" fill="#575757" d="M 188.5,45.5 C 194.238,46.0167 199.904,47.0167 205.5,48.5C 206.584,48.315 207.584,47.9817 208.5,47.5C 208.672,48.4916 208.338,49.1583 207.5,49.5C 200.891,48.9128 194.558,47.5795 188.5,45.5 Z"/></g>
<g><path style="opacity:0.114" fill="#282828" d="M 80.5,47.5 C 80.573,49.0269 79.9063,50.0269 78.5,50.5C 78.427,48.9731 79.0937,47.9731 80.5,47.5 Z"/></g>
<g><path style="opacity:0.995" fill="#888888" d="M 464.5,49.5 C 469.467,50.9884 474.134,52.9884 478.5,55.5C 479.141,56.4822 479.807,57.4822 480.5,58.5C 480,58.8333 479.5,59.1667 479,59.5C 470.262,61.3886 461.762,63.722 453.5,66.5C 444.904,63.1394 436.571,59.3061 428.5,55C 426.527,54.5045 424.527,54.3379 422.5,54.5C 425.287,53.5233 428.287,53.19 431.5,53.5C 436.536,53.6978 441.203,52.6978 445.5,50.5C 447.042,49.6993 448.708,49.366 450.5,49.5C 453.545,49.6582 456.379,48.9915 459,47.5C 460.584,48.8613 462.418,49.528 464.5,49.5 Z"/></g>
<g><path style="opacity:0.298" fill="#2e2e2e" d="M 445.5,50.5 C 441.203,52.6978 436.536,53.6978 431.5,53.5C 435.797,51.3022 440.464,50.3022 445.5,50.5 Z"/></g>
<g><path style="opacity:0.424" fill="#414141" d="M 78.5,50.5 C 77.6167,53.7043 75.9501,56.3709 73.5,58.5C 74.3833,55.2957 76.0499,52.6291 78.5,50.5 Z"/></g>
<g><path style="opacity:1" fill="#3d3d3d" d="M 343.5,45.5 C 345.788,46.0735 347.955,47.0735 350,48.5C 352.21,47.2512 354.376,47.4178 356.5,49C 357.833,50 357.833,51 356.5,52C 358,53.1667 359.5,54.3333 361,55.5C 361.75,54.8742 362.584,54.3742 363.5,54C 362.328,53.5814 361.328,52.9147 360.5,52C 362.18,51.9657 363.68,51.799 365,51.5C 365.667,54.1667 366.333,54.1667 367,51.5C 367.317,53.3008 367.984,53.6341 369,52.5C 369.617,53.4491 369.451,54.2825 368.5,55C 370.301,55.3173 370.634,55.984 369.5,57C 370.823,57.8159 371.489,58.9826 371.5,60.5C 362.586,61.4167 353.919,63.4167 345.5,66.5C 343.811,65.6963 342.145,64.6963 340.5,63.5C 338.567,65.5638 336.4,65.5638 334,63.5C 333.5,63.1667 333,62.8333 332.5,62.5C 333.167,61.8333 333.833,61.1667 334.5,60.5C 333.726,59.2888 332.893,59.2888 332,60.5C 331.333,59.1667 330.667,57.8333 330,56.5C 329.667,57.5 329.333,58.5 329,59.5C 327.216,56.9974 325.549,56.9974 324,59.5C 320.07,58.0309 319.903,56.8643 323.5,56C 322.663,54.9887 322.33,53.8221 322.5,52.5C 320.436,52.313 318.436,51.813 316.5,51C 322.679,48.2075 329.013,46.3742 335.5,45.5C 338.167,44.1667 340.833,44.1667 343.5,45.5 Z"/></g>
<g><path style="opacity:0.486" fill="#3c3c3c" d="M 421.5,54.5 C 416.578,57.0639 411.245,58.3972 405.5,58.5C 410.503,56.2941 415.836,54.9608 421.5,54.5 Z"/></g>
<g><path style="opacity:1" fill="#2a2a2a" d="M 343.5,45.5 C 347.915,45.3054 352.249,45.8054 356.5,47C 367.369,50.7657 378.036,55.099 388.5,60C 392.819,60.0759 397.152,59.9093 401.5,59.5C 397.203,61.6978 392.536,62.6978 387.5,62.5C 385.983,62.4894 384.816,61.8228 384,60.5C 383.311,61.3567 382.478,62.0233 381.5,62.5C 378.137,61.8318 374.803,61.1651 371.5,60.5C 371.489,58.9826 370.823,57.8159 369.5,57C 370.634,55.984 370.301,55.3173 368.5,55C 369.451,54.2825 369.617,53.4491 369,52.5C 367.984,53.6341 367.317,53.3008 367,51.5C 366.333,54.1667 365.667,54.1667 365,51.5C 363.68,51.799 362.18,51.9657 360.5,52C 361.328,52.9147 362.328,53.5814 363.5,54C 362.584,54.3742 361.75,54.8742 361,55.5C 359.5,54.3333 358,53.1667 356.5,52C 357.833,51 357.833,50 356.5,49C 354.376,47.4178 352.21,47.2512 350,48.5C 347.955,47.0735 345.788,46.0735 343.5,45.5 Z"/></g>
<g><path style="opacity:1" fill="#1f1f1f" d="M 335.5,45.5 C 329.013,46.3742 322.679,48.2075 316.5,51C 318.436,51.813 320.436,52.313 322.5,52.5C 322.33,53.8221 322.663,54.9887 323.5,56C 319.903,56.8643 320.07,58.0309 324,59.5C 325.549,56.9974 327.216,56.9974 329,59.5C 329.333,58.5 329.667,57.5 330,56.5C 330.667,57.8333 331.333,59.1667 332,60.5C 332.893,59.2888 333.726,59.2888 334.5,60.5C 333.833,61.1667 333.167,61.8333 332.5,62.5C 333,62.8333 333.5,63.1667 334,63.5C 336.4,65.5638 338.567,65.5638 340.5,63.5C 342.145,64.6963 343.811,65.6963 345.5,66.5C 342.259,68.3921 339.092,69.7254 336,70.5C 332.153,67.2403 327.653,65.5736 322.5,65.5C 322.649,64.448 322.483,63.448 322,62.5C 320.984,63.6341 320.317,63.3008 320,61.5C 319.667,61.8333 319.333,62.1667 319,62.5C 315.217,60.8817 311.884,59.2151 309,57.5C 307.093,57.4205 305.093,57.7539 303,58.5C 303.931,60.0041 304.598,61.6708 305,63.5C 301.956,62.1971 300.789,59.8638 301.5,56.5C 311.798,49.623 323.131,45.9564 335.5,45.5 Z"/></g>
<g><path style="opacity:1" fill="#707070" d="M 478.5,55.5 C 481.797,55.6317 483.463,57.2984 483.5,60.5C 483.557,61.609 483.89,62.609 484.5,63.5C 477.354,63.8709 470.354,65.0375 463.5,67C 461.881,67.2355 460.881,68.0689 460.5,69.5C 458.176,68.3443 455.843,67.3443 453.5,66.5C 461.762,63.722 470.262,61.3886 479,59.5C 479.5,59.1667 480,58.8333 480.5,58.5C 479.807,57.4822 479.141,56.4822 478.5,55.5 Z"/></g>
<g><path style="opacity:0.129" fill="#252525" d="M 71.5,60.5 C 71.573,62.0269 70.9063,63.0269 69.5,63.5C 69.427,61.9731 70.0937,60.9731 71.5,60.5 Z"/></g>
<g><path style="opacity:0.063" fill="#171717" d="M 483.5,60.5 C 485.389,61.604 487.055,62.9373 488.5,64.5C 487.167,64.1667 485.833,63.8333 484.5,63.5C 483.89,62.609 483.557,61.609 483.5,60.5 Z"/></g>
<g><path style="opacity:0.999" fill="#8a8a8a" d="M 484.5,63.5 C 485.833,63.8333 487.167,64.1667 488.5,64.5C 488.833,64.5 489.167,64.5 489.5,64.5C 492.088,66.6246 495.088,67.9579 498.5,68.5C 500.967,68.7549 502.967,69.7549 504.5,71.5C 504.833,72.5 505.5,73.1667 506.5,73.5C 498.604,75.0577 490.937,77.3911 483.5,80.5C 475.561,77.1837 467.895,73.5171 460.5,69.5C 460.881,68.0689 461.881,67.2355 463.5,67C 470.354,65.0375 477.354,63.8709 484.5,63.5 Z"/></g>
<g><path style="opacity:0.216" fill="#272727" d="M 69.5,63.5 C 69.573,65.0269 68.9063,66.0269 67.5,66.5C 67.427,64.9731 68.0937,63.9731 69.5,63.5 Z"/></g>
<g><path style="opacity:0.059" fill="#202020" d="M 489.5,64.5 C 492.912,65.0421 495.912,66.3754 498.5,68.5C 495.088,67.9579 492.088,66.6246 489.5,64.5 Z"/></g>
<g><path style="opacity:1" fill="#acacab" d="M 421.5,54.5 C 421.833,54.5 422.167,54.5 422.5,54.5C 424.527,54.3379 426.527,54.5045 428.5,55C 436.571,59.3061 444.904,63.1394 453.5,66.5C 455.843,67.3443 458.176,68.3443 460.5,69.5C 467.895,73.5171 475.561,77.1837 483.5,80.5C 485.5,81.1667 487.5,81.8333 489.5,82.5C 494.209,85.5293 499.209,88.196 504.5,90.5C 506.674,90.7497 508.341,91.7497 509.5,93.5C 502.231,94.0672 495.231,95.7339 488.5,98.5C 487.893,98.3764 487.56,98.0431 487.5,97.5C 488.774,96.8106 488.774,95.9772 487.5,95C 484.554,94.1939 481.888,92.8605 479.5,91C 476.211,90.1184 472.877,89.4517 469.5,89C 470.458,87.8525 470.125,86.8525 468.5,86C 463.945,83.9621 459.279,82.1288 454.5,80.5C 453.583,81.1272 452.583,81.4606 451.5,81.5C 449.265,81.7947 447.265,81.4614 445.5,80.5C 447.75,80.8186 449.75,80.3186 451.5,79C 447.277,76.5205 442.944,74.1872 438.5,72C 435.228,71.4236 432.228,71.9236 429.5,73.5C 428.833,73.5 428.167,73.5 427.5,73.5C 426.5,72.8333 425.5,72.1667 424.5,71.5C 428.835,71.285 430.168,69.285 428.5,65.5C 423.431,61.2131 417.765,60.3797 411.5,63C 405.642,65.1311 399.642,66.6311 393.5,67.5C 392.212,69.2985 392.212,70.9652 393.5,72.5C 395.986,74.4651 398.819,75.7984 402,76.5C 407.202,75.6382 412.369,74.6382 417.5,73.5C 417.152,78.8933 419.486,82.2266 424.5,83.5C 425.386,84.325 425.719,85.325 425.5,86.5C 420.069,85.0936 417.735,87.0936 418.5,92.5C 419.833,92.5 421.167,92.5 422.5,92.5C 425.547,93.9209 428.547,95.2542 431.5,96.5C 435.471,97.3842 439.138,99.0509 442.5,101.5C 444.953,102.217 447.287,103.384 449.5,105C 452.146,105.497 454.813,105.664 457.5,105.5C 425.254,114.019 392.754,122.019 360,129.5C 332.211,117.694 304.711,104.861 277.5,91C 278.737,90.7679 279.737,90.2679 280.5,89.5C 313.088,81.3529 345.755,73.5196 378.5,66C 381.718,65.0997 384.718,63.933 387.5,62.5C 392.536,62.6978 397.203,61.6978 401.5,59.5C 402.568,58.5655 403.901,58.2322 405.5,58.5C 411.245,58.3972 416.578,57.0639 421.5,54.5 Z"/></g>
<g><path style="opacity:0.243" fill="#313131" d="M 67.5,66.5 C 67.2503,68.674 66.2503,70.3406 64.5,71.5C 64.7497,69.326 65.7497,67.6594 67.5,66.5 Z"/></g>
<g><path style="opacity:1" fill="#4a4a4a" d="M 428.5,65.5 C 420.473,67.5675 412.306,69.5675 404,71.5C 400.241,71.1921 396.741,70.1921 393.5,68.5C 393.5,69.8333 393.5,71.1667 393.5,72.5C 392.212,70.9652 392.212,69.2985 393.5,67.5C 399.642,66.6311 405.642,65.1311 411.5,63C 417.765,60.3797 423.431,61.2131 428.5,65.5 Z"/></g>
<g><path style="opacity:1" fill="#242424" d="M 428.5,65.5 C 430.168,69.285 428.835,71.285 424.5,71.5C 421.848,71.4095 419.515,72.0762 417.5,73.5C 412.369,74.6382 407.202,75.6382 402,76.5C 398.819,75.7984 395.986,74.4651 393.5,72.5C 393.5,71.1667 393.5,69.8333 393.5,68.5C 396.741,70.1921 400.241,71.1921 404,71.5C 412.306,69.5675 420.473,67.5675 428.5,65.5 Z"/></g>
<g><path style="opacity:1" fill="#a2483c" d="M 425.5,73.5 C 426.167,73.5 426.833,73.5 427.5,73.5C 428.167,73.5 428.833,73.5 429.5,73.5C 435.584,74.2991 440.918,76.6325 445.5,80.5C 447.265,81.4614 449.265,81.7947 451.5,81.5C 459.722,87.16 468.722,91.3266 478.5,94C 479.822,95.9764 481.488,97.4764 483.5,98.5C 481.393,99.4682 479.059,99.8016 476.5,99.5C 476.631,98.6236 476.298,97.9569 475.5,97.5C 471.479,95.8208 467.479,94.1541 463.5,92.5C 460.822,91.8248 458.488,90.4915 456.5,88.5C 452.474,86.8182 448.474,85.1515 444.5,83.5C 438.009,80.4215 431.675,77.0882 425.5,73.5 Z"/></g>
<g><path style="opacity:1" fill="#534a4a" d="M 445.5,80.5 C 440.918,76.6325 435.584,74.2991 429.5,73.5C 432.228,71.9236 435.228,71.4236 438.5,72C 442.944,74.1872 447.277,76.5205 451.5,79C 449.75,80.3186 447.75,80.8186 445.5,80.5 Z"/></g>
<g><path style="opacity:0.1" fill="#262626" d="M 504.5,71.5 C 507.674,73.5582 511.007,75.2249 514.5,76.5C 512.097,76.448 509.764,76.7814 507.5,77.5C 507.768,75.901 507.434,74.5676 506.5,73.5C 505.5,73.1667 504.833,72.5 504.5,71.5 Z"/></g>
<g><path style="opacity:0.224" fill="#363636" d="M 64.5,71.5 C 64.4431,72.609 64.1098,73.609 63.5,74.5C 63.1667,75.1667 62.8333,75.8333 62.5,76.5C 62.5,87.5 62.5,98.5 62.5,109.5C 61.3405,98.0073 61.1739,86.3407 62,74.5C 62.3768,73.0577 63.2101,72.0577 64.5,71.5 Z"/></g>
<g><path style="opacity:1" fill="#737373" d="M 506.5,73.5 C 507.434,74.5676 507.768,75.901 507.5,77.5C 501.362,79.169 495.362,80.8357 489.5,82.5C 487.5,81.8333 485.5,81.1667 483.5,80.5C 490.937,77.3911 498.604,75.0577 506.5,73.5 Z"/></g>
<g><path style="opacity:1" fill="#a8a835" d="M 421.5,75.5 C 427.204,77.3468 432.87,79.5135 438.5,82C 438.833,82.3333 439.167,82.6667 439.5,83C 435.897,83.843 432.564,83.343 429.5,81.5C 425.575,80.9004 422.908,78.9004 421.5,75.5 Z"/></g>
<g><path style="opacity:0.998" fill="#8c8c8c" d="M 514.5,76.5 C 516.403,76.7959 518.07,77.4625 519.5,78.5C 520.78,79.9313 522.447,80.5979 524.5,80.5C 527.968,83.2281 531.968,84.8948 536.5,85.5C 536.5,85.8333 536.5,86.1667 536.5,86.5C 535.653,87.9663 534.32,88.7996 532.5,89C 526.091,89.4689 519.924,90.9689 514,93.5C 511.01,91.8498 508.01,90.1831 505,88.5C 504.536,89.0944 504.369,89.7611 504.5,90.5C 499.209,88.196 494.209,85.5293 489.5,82.5C 495.362,80.8357 501.362,79.169 507.5,77.5C 509.764,76.7814 512.097,76.448 514.5,76.5 Z"/></g>
<g><path style="opacity:0.118" fill="#2d2d2d" d="M 519.5,78.5 C 521.553,78.4021 523.22,79.0687 524.5,80.5C 522.447,80.5979 520.78,79.9313 519.5,78.5 Z"/></g>
<g><path style="opacity:1" fill="#bda751" d="M 425.5,73.5 C 431.675,77.0882 438.009,80.4215 444.5,83.5C 443.167,83.5 441.833,83.5 440.5,83.5C 440.5,84.5 440.5,85.5 440.5,86.5C 440.167,86.5 439.833,86.5 439.5,86.5C 437.342,84.78 434.675,83.9467 431.5,84C 430.619,83.2917 429.953,82.4584 429.5,81.5C 432.564,83.343 435.897,83.843 439.5,83C 439.167,82.6667 438.833,82.3333 438.5,82C 432.87,79.5135 427.204,77.3468 421.5,75.5C 422.514,74.3263 423.847,73.6596 425.5,73.5 Z"/></g>
<g><path style="opacity:0.989" fill="#0c0c0c" d="M 301.5,56.5 C 300.789,59.8638 301.956,62.1971 305,63.5C 304.598,61.6708 303.931,60.0041 303,58.5C 305.093,57.7539 307.093,57.4205 309,57.5C 311.884,59.2151 315.217,60.8817 319,62.5C 319.333,62.1667 319.667,61.8333 320,61.5C 320.317,63.3008 320.984,63.6341 322,62.5C 322.483,63.448 322.649,64.448 322.5,65.5C 327.653,65.5736 332.153,67.2403 336,70.5C 339.092,69.7254 342.259,68.3921 345.5,66.5C 353.919,63.4167 362.586,61.4167 371.5,60.5C 374.803,61.1651 378.137,61.8318 381.5,62.5C 382.478,62.0233 383.311,61.3567 384,60.5C 384.816,61.8228 385.983,62.4894 387.5,62.5C 384.718,63.933 381.718,65.0997 378.5,66C 345.755,73.5196 313.088,81.3529 280.5,89.5C 278.901,89.2322 277.568,89.5655 276.5,90.5C 275.776,92.2184 275.109,94.0517 274.5,96C 275.128,98.9386 275.795,101.772 276.5,104.5C 276.858,106.701 278.192,108.035 280.5,108.5C 281.107,108.376 281.44,108.043 281.5,107.5C 283.906,109.531 286.573,111.198 289.5,112.5C 290.5,112.167 291.167,111.5 291.5,110.5C 290.359,109.575 290.359,108.741 291.5,108C 290.833,107.333 290.167,106.667 289.5,106C 286.64,106.209 283.974,106.376 281.5,106.5C 280.679,103.446 280.679,100.446 281.5,97.5C 286.833,100.167 292.167,102.833 297.5,105.5C 298.227,109.511 298.893,113.511 299.5,117.5C 306.896,121.178 314.23,124.845 321.5,128.5C 314.41,130.265 307.41,131.931 300.5,133.5C 294.941,130.779 289.274,128.279 283.5,126C 283.074,122.408 281.074,120.908 277.5,121.5C 277.286,123.144 277.62,124.644 278.5,126C 287.05,129.016 295.383,132.516 303.5,136.5C 306.833,138.5 310.167,140.5 313.5,142.5C 313.178,148.358 313.511,154.025 314.5,159.5C 314.5,166.167 314.5,172.833 314.5,179.5C 310.138,180.285 305.804,181.285 301.5,182.5C 298.653,180.912 295.653,179.579 292.5,178.5C 291.669,171.524 291.169,164.524 291,157.5C 284.884,159.05 278.717,160.55 272.5,162C 267.789,170.643 263.122,178.809 258.5,186.5C 257.833,185.5 257.167,184.5 256.5,183.5C 254.907,179.221 253.407,174.888 252,170.5C 251.828,174.871 251.328,179.204 250.5,183.5C 249.817,183.863 249.15,184.196 248.5,184.5C 250.387,175.024 251.053,165.358 250.5,155.5C 250.5,148.167 250.5,140.833 250.5,133.5C 255.436,106.468 268.103,83.6351 288.5,65C 292.52,61.6587 296.853,58.8253 301.5,56.5 Z"/></g>
<g><path style="opacity:1" fill="#aca899" d="M 424.5,71.5 C 425.5,72.1667 426.5,72.8333 427.5,73.5C 426.833,73.5 426.167,73.5 425.5,73.5C 423.847,73.6596 422.514,74.3263 421.5,75.5C 422.908,78.9004 425.575,80.9004 429.5,81.5C 429.953,82.4584 430.619,83.2917 431.5,84C 434.675,83.9467 437.342,84.78 439.5,86.5C 436.904,85.7347 434.237,85.4013 431.5,85.5C 429.033,85.7549 427.033,86.7549 425.5,88.5C 420.894,88.0508 419.894,89.3841 422.5,92.5C 421.167,92.5 419.833,92.5 418.5,92.5C 417.735,87.0936 420.069,85.0936 425.5,86.5C 425.719,85.325 425.386,84.325 424.5,83.5C 419.486,82.2266 417.152,78.8933 417.5,73.5C 419.515,72.0762 421.848,71.4095 424.5,71.5 Z"/></g>
<g><path style="opacity:0.075" fill="#272727" d="M 524.5,80.5 C 528.787,81.6483 532.787,83.315 536.5,85.5C 531.968,84.8948 527.968,83.2281 524.5,80.5 Z"/></g>
<g><path style="opacity:1" fill="#b1aa3e" d="M 444.5,83.5 C 448.474,85.1515 452.474,86.8182 456.5,88.5C 456.414,89.4959 456.748,90.3292 457.5,91C 455.19,91.4966 452.857,91.6633 450.5,91.5C 446.997,90.1286 443.664,88.462 440.5,86.5C 440.5,85.5 440.5,84.5 440.5,83.5C 441.833,83.5 443.167,83.5 444.5,83.5 Z"/></g>
<g><path style="opacity:1" fill="#504645" d="M 487.5,97.5 C 486.292,98.2341 484.959,98.5674 483.5,98.5C 481.488,97.4764 479.822,95.9764 478.5,94C 468.722,91.3266 459.722,87.16 451.5,81.5C 452.583,81.4606 453.583,81.1272 454.5,80.5C 459.279,82.1288 463.945,83.9621 468.5,86C 470.125,86.8525 470.458,87.8525 469.5,89C 472.877,89.4517 476.211,90.1184 479.5,91C 481.888,92.8605 484.554,94.1939 487.5,95C 488.774,95.9772 488.774,96.8106 487.5,97.5 Z"/></g>
<g><path style="opacity:0.999" fill="#717271" d="M 536.5,86.5 C 537.167,88.8333 537.833,91.1667 538.5,93.5C 538.5,101.833 538.5,110.167 538.5,118.5C 530.255,120.916 521.922,122.916 513.5,124.5C 512.53,123.371 511.364,122.371 510,121.5C 505.513,120.386 501.346,118.72 497.5,116.5C 497.34,114.847 496.674,113.514 495.5,112.5C 499.887,110.566 504.554,109.233 509.5,108.5C 510.503,103.517 510.503,98.5166 509.5,93.5C 508.341,91.7497 506.674,90.7497 504.5,90.5C 504.369,89.7611 504.536,89.0944 505,88.5C 508.01,90.1831 511.01,91.8498 514,93.5C 519.924,90.9689 526.091,89.4689 532.5,89C 534.32,88.7996 535.653,87.9663 536.5,86.5 Z"/></g>
<g><path style="opacity:0.245" fill="#1e1e1e" d="M 536.5,86.5 C 536.5,86.1667 536.5,85.8333 536.5,85.5C 538.369,87.6353 539.036,90.3019 538.5,93.5C 537.833,91.1667 537.167,88.8333 536.5,86.5 Z"/></g>
<g><path style="opacity:1" fill="#534b3d" d="M 431.5,85.5 C 434.237,85.4013 436.904,85.7347 439.5,86.5C 439.833,86.5 440.167,86.5 440.5,86.5C 443.664,88.462 446.997,90.1286 450.5,91.5C 450.5,92.1667 450.5,92.8333 450.5,93.5C 448.883,94.038 447.216,94.3713 445.5,94.5C 445.047,93.5416 444.381,92.7083 443.5,92C 441.028,90.5399 438.361,89.5399 435.5,89C 433.681,88.2597 432.348,87.0931 431.5,85.5 Z"/></g>
<g><path style="opacity:1" fill="#80a980" d="M 347.5,92.5 C 346.508,92.3284 345.842,92.6618 345.5,93.5C 339.28,94.6026 333.113,95.936 327,97.5C 324.528,96.6781 322.028,96.0114 319.5,95.5C 319.261,93.5328 319.594,91.6995 320.5,90C 326.969,88.1873 333.635,87.0206 340.5,86.5C 342.858,86.7529 345.192,87.0862 347.5,87.5C 347.5,89.1667 347.5,90.8333 347.5,92.5 Z"/></g>
<g><path style="opacity:1" fill="#a3453a" d="M 431.5,85.5 C 432.348,87.0931 433.681,88.2597 435.5,89C 438.361,89.5399 441.028,90.5399 443.5,92C 444.381,92.7083 445.047,93.5416 445.5,94.5C 446.919,95.4511 448.585,95.7845 450.5,95.5C 455.417,97.4469 459.751,100.114 463.5,103.5C 461.784,103.629 460.117,103.962 458.5,104.5C 458.047,103.542 457.381,102.708 456.5,102C 452.831,100.342 449.165,98.8419 445.5,97.5C 444.01,95.7202 442.01,95.0535 439.5,95.5C 438.652,93.9069 437.319,92.7403 435.5,92C 432.252,90.5405 428.919,89.3738 425.5,88.5C 427.033,86.7549 429.033,85.7549 431.5,85.5 Z"/></g>
<g><path style="opacity:1" fill="#aa9d5e" d="M 456.5,88.5 C 458.488,90.4915 460.822,91.8248 463.5,92.5C 461.833,92.5 460.167,92.5 458.5,92.5C 458.5,93.5 458.5,94.5 458.5,95.5C 456.833,94.8333 455.167,94.1667 453.5,93.5C 452.5,93.5 451.5,93.5 450.5,93.5C 450.5,92.8333 450.5,92.1667 450.5,91.5C 452.857,91.6633 455.19,91.4966 457.5,91C 456.748,90.3292 456.414,89.4959 456.5,88.5 Z"/></g>
<g><path style="opacity:1" fill="#b2a83d" d="M 425.5,88.5 C 428.919,89.3738 432.252,90.5405 435.5,92C 437.319,92.7403 438.652,93.9069 439.5,95.5C 437.052,96.4731 434.385,96.8064 431.5,96.5C 428.547,95.2542 425.547,93.9209 422.5,92.5C 419.894,89.3841 420.894,88.0508 425.5,88.5 Z"/></g>
<g><path style="opacity:1" fill="#4c4c4c" d="M 276.5,90.5 C 276.5,95.1667 276.5,99.8333 276.5,104.5C 275.795,101.772 275.128,98.9386 274.5,96C 275.109,94.0517 275.776,92.2184 276.5,90.5 Z"/></g>
<g><path style="opacity:1" fill="#aca73f" d="M 463.5,92.5 C 467.479,94.1541 471.479,95.8208 475.5,97.5C 476.298,97.9569 476.631,98.6236 476.5,99.5C 476.038,100.88 475.038,101.547 473.5,101.5C 472.151,101.154 470.817,100.821 469.5,100.5C 465.763,99.1338 462.096,97.4672 458.5,95.5C 458.5,94.5 458.5,93.5 458.5,92.5C 460.167,92.5 461.833,92.5 463.5,92.5 Z"/></g>
<g><path style="opacity:1" fill="#a2afa2" d="M 347.5,92.5 C 347.5,90.8333 347.5,89.1667 347.5,87.5C 345.192,87.0862 342.858,86.7529 340.5,86.5C 333.635,87.0206 326.969,88.1873 320.5,90C 319.594,91.6995 319.261,93.5328 319.5,95.5C 322.028,96.0114 324.528,96.6781 327,97.5C 333.113,95.936 339.28,94.6026 345.5,93.5C 341.231,95.4161 336.898,97.2494 332.5,99C 329.167,99.6667 325.833,99.6667 322.5,99C 321.692,97.2942 320.359,96.4609 318.5,96.5C 318.223,93.5525 318.556,90.7191 319.5,88C 325.361,85.8251 331.194,83.6584 337,81.5C 340.429,83.4722 344.263,85.4722 348.5,87.5C 350.009,89.62 349.676,91.2867 347.5,92.5 Z"/></g>
<g><path style="opacity:1" fill="#8f908f" d="M 280.5,89.5 C 279.737,90.2679 278.737,90.7679 277.5,91C 304.711,104.861 332.211,117.694 360,129.5C 392.754,122.019 425.254,114.019 457.5,105.5C 458.167,105.5 458.5,105.167 458.5,104.5C 460.117,103.962 461.784,103.629 463.5,103.5C 466.216,103.614 468.216,102.614 469.5,100.5C 470.817,100.821 472.151,101.154 473.5,101.5C 475.038,101.547 476.038,100.88 476.5,99.5C 479.059,99.8016 481.393,99.4682 483.5,98.5C 484.959,98.5674 486.292,98.2341 487.5,97.5C 487.56,98.0431 487.893,98.3764 488.5,98.5C 495.231,95.7339 502.231,94.0672 509.5,93.5C 510.503,98.5166 510.503,103.517 509.5,108.5C 504.554,109.233 499.887,110.566 495.5,112.5C 488.544,114.444 481.544,116.111 474.5,117.5C 450.167,123.5 425.833,129.5 401.5,135.5C 395.298,136.747 389.298,138.414 383.5,140.5C 376.544,142.444 369.544,144.111 362.5,145.5C 360.801,145.66 359.134,145.494 357.5,145C 347.823,139.659 337.823,135.159 327.5,131.5C 326.089,129.461 324.089,128.461 321.5,128.5C 314.23,124.845 306.896,121.178 299.5,117.5C 298.893,113.511 298.227,109.511 297.5,105.5C 292.167,102.833 286.833,100.167 281.5,97.5C 280.679,100.446 280.679,103.446 281.5,106.5C 280.167,106.833 280.167,107.167 281.5,107.5C 281.44,108.043 281.107,108.376 280.5,108.5C 278.192,108.035 276.858,106.701 276.5,104.5C 276.5,99.8333 276.5,95.1667 276.5,90.5C 277.568,89.5655 278.901,89.2322 280.5,89.5 Z"/></g>
<g><path style="opacity:1" fill="#52463e" d="M 453.5,93.5 C 455.167,94.1667 456.833,94.8333 458.5,95.5C 462.096,97.4672 465.763,99.1338 469.5,100.5C 468.216,102.614 466.216,103.614 463.5,103.5C 459.751,100.114 455.417,97.4469 450.5,95.5C 451.5,94.8333 452.5,94.1667 453.5,93.5 Z"/></g>
<g><path style="opacity:1" fill="#aea460" d="M 439.5,95.5 C 442.01,95.0535 444.01,95.7202 445.5,97.5C 443.473,97.3379 441.473,97.5045 439.5,98C 440.71,99.0391 441.71,100.206 442.5,101.5C 439.138,99.0509 435.471,97.3842 431.5,96.5C 434.385,96.8064 437.052,96.4731 439.5,95.5 Z"/></g>
<g><path style="opacity:1" fill="#a98888" d="M 450.5,93.5 C 451.5,93.5 452.5,93.5 453.5,93.5C 452.5,94.1667 451.5,94.8333 450.5,95.5C 448.585,95.7845 446.919,95.4511 445.5,94.5C 447.216,94.3713 448.883,94.038 450.5,93.5 Z"/></g>
<g><path style="opacity:1" fill="#aca33a" d="M 445.5,97.5 C 449.165,98.8419 452.831,100.342 456.5,102C 457.381,102.708 458.047,103.542 458.5,104.5C 458.5,105.167 458.167,105.5 457.5,105.5C 454.813,105.664 452.146,105.497 449.5,105C 447.287,103.384 444.953,102.217 442.5,101.5C 441.71,100.206 440.71,99.0391 439.5,98C 441.473,97.5045 443.473,97.3379 445.5,97.5 Z"/></g>
<g><path style="opacity:1" fill="#383838" d="M 281.5,107.5 C 280.167,107.167 280.167,106.833 281.5,106.5C 283.974,106.376 286.64,106.209 289.5,106C 290.167,106.667 290.833,107.333 291.5,108C 290.359,108.741 290.359,109.575 291.5,110.5C 291.167,111.5 290.5,112.167 289.5,112.5C 286.573,111.198 283.906,109.531 281.5,107.5 Z"/></g>
<g><path style="opacity:1" fill="#3f3f3f" d="M 391.5,112.5 C 388.278,112.85 385.112,113.517 382,114.5C 376.797,113.062 371.963,111.062 367.5,108.5C 370.403,107.31 373.403,106.31 376.5,105.5C 381.706,107.606 386.706,109.939 391.5,112.5 Z"/></g>
<g><path style="opacity:1" fill="#101010" d="M 367.5,108.5 C 371.963,111.062 376.797,113.062 382,114.5C 385.112,113.517 388.278,112.85 391.5,112.5C 392.451,113.919 392.784,115.585 392.5,117.5C 389.049,117.538 385.716,118.205 382.5,119.5C 376.955,117.926 371.621,115.926 366.5,113.5C 366.216,111.585 366.549,109.919 367.5,108.5 Z"/></g>
<g><path style="opacity:1" fill="#0a0c09" d="M 495.5,112.5 C 496.674,113.514 497.34,114.847 497.5,116.5C 497.5,120.167 497.5,123.833 497.5,127.5C 493.322,127.878 489.322,128.878 485.5,130.5C 482.921,130.606 480.588,129.939 478.5,128.5C 477.469,127.751 476.302,127.085 475,126.5C 474.502,123.518 474.335,120.518 474.5,117.5C 481.544,116.111 488.544,114.444 495.5,112.5 Z"/></g>
<g><path style="opacity:1" fill="#3d3d3d" d="M 133.5,120.5 C 130.521,121.886 127.688,123.552 125,125.5C 115.588,123.288 106.088,121.621 96.5,120.5C 99.6867,118.65 102.853,116.65 106,114.5C 115.177,116.967 124.344,118.967 133.5,120.5 Z"/></g>
<g><path style="opacity:1" fill="#3b563b" d="M 497.5,116.5 C 501.346,118.72 505.513,120.386 510,121.5C 511.364,122.371 512.53,123.371 513.5,124.5C 512.833,124.5 512.167,124.5 511.5,124.5C 506.921,125.915 502.255,126.915 497.5,127.5C 497.5,123.833 497.5,120.167 497.5,116.5 Z"/></g>
<g><path style="opacity:1" fill="#0b0b0b" d="M 96.5,120.5 C 106.088,121.621 115.588,123.288 125,125.5C 127.688,123.552 130.521,121.886 133.5,120.5C 134.321,123.641 134.821,126.975 135,130.5C 136.025,148.16 136.358,165.826 136,183.5C 133.201,185.543 130.201,187.209 127,188.5C 117.748,187.283 108.581,185.616 99.5,183.5C 98.6384,162.487 97.6384,141.487 96.5,120.5 Z"/></g>
<g><path style="opacity:0.039" fill="#151e18" d="M 538.5,93.5 C 539.657,101.99 539.824,110.657 539,119.5C 529.926,122.227 520.759,124.56 511.5,126.5C 511.5,125.833 511.5,125.167 511.5,124.5C 512.167,124.5 512.833,124.5 513.5,124.5C 521.922,122.916 530.255,120.916 538.5,118.5C 538.5,110.167 538.5,101.833 538.5,93.5 Z"/></g>
<g><path style="opacity:1" fill="#355835" d="M 478.5,128.5 C 480.588,129.939 482.921,130.606 485.5,130.5C 469.617,134.617 453.617,138.783 437.5,143C 438.056,143.383 438.389,143.883 438.5,144.5C 435.57,145.299 432.57,145.632 429.5,145.5C 431.562,144.224 433.896,143.39 436.5,143C 434.382,141.918 432.382,140.751 430.5,139.5C 433.05,139.439 434.55,138.106 435,135.5C 436.458,136.747 437.958,136.747 439.5,135.5C 439.677,138.078 440.843,138.078 443,135.5C 444,135.833 445,136.167 446,136.5C 446.483,135.552 446.649,134.552 446.5,133.5C 444.833,133.5 443.167,133.5 441.5,133.5C 441.773,131.549 441.107,130.049 439.5,129C 449.674,125.879 459.84,122.712 470,119.5C 471.885,119.862 472.719,121.029 472.5,123C 472.057,124.825 471.723,126.658 471.5,128.5C 473.833,128.5 476.167,128.5 478.5,128.5 Z"/></g>
<g><path style="opacity:0.991" fill="#0c0c0c" d="M 62.5,110.5 C 64.3817,140.986 65.715,171.653 66.5,202.5C 70.1358,202.594 73.6358,203.261 77,204.5C 75.1186,221.592 78.2852,237.592 86.5,252.5C 86.6621,254.527 86.4955,256.527 86,258.5C 81.8561,261.116 80.1894,264.783 81,269.5C 81.986,262.845 85.486,261.012 91.5,264C 95.0851,268.468 97.0851,273.635 97.5,279.5C 97.104,282.435 96.104,285.102 94.5,287.5C 91.7989,288.869 89.2989,288.536 87,286.5C 86.5357,287.094 86.369,287.761 86.5,288.5C 83.8465,284.537 81.1798,280.537 78.5,276.5C 79.3636,276.298 80.3636,275.964 81.5,275.5C 82.5896,274.391 82.5896,273.391 81.5,272.5C 80.8076,273.025 80.3076,273.692 80,274.5C 74.9101,272.024 69.9101,269.357 65,266.5C 64.5357,267.094 64.369,267.761 64.5,268.5C 48.9763,258.532 38.4763,244.532 33,226.5C 25.6443,187.905 35.311,154.238 62,125.5C 62.4993,120.511 62.6659,115.511 62.5,110.5 Z"/></g>
<g><path style="opacity:1" fill="#385538" d="M 474.5,117.5 C 474.335,120.518 474.502,123.518 475,126.5C 476.302,127.085 477.469,127.751 478.5,128.5C 476.167,128.5 473.833,128.5 471.5,128.5C 471.723,126.658 472.057,124.825 472.5,123C 472.719,121.029 471.885,119.862 470,119.5C 459.84,122.712 449.674,125.879 439.5,129C 441.107,130.049 441.773,131.549 441.5,133.5C 443.167,133.5 444.833,133.5 446.5,133.5C 446.649,134.552 446.483,135.552 446,136.5C 445,136.167 444,135.833 443,135.5C 440.843,138.078 439.677,138.078 439.5,135.5C 437.958,136.747 436.458,136.747 435,135.5C 434.55,138.106 433.05,139.439 430.5,139.5C 429.29,139.068 428.29,138.401 427.5,137.5C 430.032,137.171 431.032,136.005 430.5,134C 431.956,133.577 432.456,132.744 432,131.5C 431,132.167 430,132.833 429,133.5C 425.928,133.703 422.762,133.369 419.5,132.5C 414.066,133.605 408.399,134.938 402.5,136.5C 401.833,136.5 401.5,136.167 401.5,135.5C 425.833,129.5 450.167,123.5 474.5,117.5 Z"/></g>
<g><path style="opacity:1" fill="#132814" d="M 300.5,133.5 C 301.694,134.272 302.694,135.272 303.5,136.5C 295.383,132.516 287.05,129.016 278.5,126C 277.62,124.644 277.286,123.144 277.5,121.5C 281.074,120.908 283.074,122.408 283.5,126C 289.274,128.279 294.941,130.779 300.5,133.5 Z"/></g>
<g><path style="opacity:1" fill="#4f714f" d="M 327.5,131.5 C 337.823,135.159 347.823,139.659 357.5,145C 359.134,145.494 360.801,145.66 362.5,145.5C 362.5,148.5 362.5,151.5 362.5,154.5C 362.674,156.861 363.007,159.194 363.5,161.5C 363.5,161.833 363.5,162.167 363.5,162.5C 363.5,162.833 363.5,163.167 363.5,163.5C 361.801,163.66 360.134,163.494 358.5,163C 348.475,158.057 338.475,153.223 328.5,148.5C 329.239,148.631 329.906,148.464 330.5,148C 325.249,145.472 319.916,143.139 314.5,141C 313.167,138.667 313.167,136.333 314.5,134C 317.76,133.025 320.927,131.858 324,130.5C 325.011,131.337 326.178,131.67 327.5,131.5 Z"/></g>
<g><path style="opacity:1" fill="#325533" d="M 427.5,137.5 C 426.5,137.5 425.5,137.5 424.5,137.5C 424.5,140.167 424.5,142.833 424.5,145.5C 426.167,145.5 427.833,145.5 429.5,145.5C 428.329,146.345 426.995,147.011 425.5,147.5C 423.712,146.378 421.712,146.211 419.5,147C 414.946,148.741 410.279,150.074 405.5,151C 406.056,151.383 406.389,151.883 406.5,152.5C 403.211,153.374 399.877,154.041 396.5,154.5C 395.761,154.631 395.094,154.464 394.5,154C 396.778,153.014 399.111,152.18 401.5,151.5C 402.494,146.544 402.827,141.544 402.5,136.5C 408.399,134.938 414.066,133.605 419.5,132.5C 422.762,133.369 425.928,133.703 429,133.5C 430,132.833 431,132.167 432,131.5C 432.456,132.744 431.956,133.577 430.5,134C 431.032,136.005 430.032,137.171 427.5,137.5 Z"/></g>
<g><path style="opacity:0.148" fill="#2d2d2d" d="M 248.5,89.5 C 249.445,104.123 250.112,118.79 250.5,133.5C 250.5,140.833 250.5,148.167 250.5,155.5C 249.15,136.682 248.483,117.682 248.5,98.5C 248.5,95.5 248.5,92.5 248.5,89.5 Z"/></g>
<g><path style="opacity:1" fill="#183618" d="M 511.5,124.5 C 511.5,125.167 511.5,125.833 511.5,126.5C 506.872,128.044 502.205,129.377 497.5,130.5C 490.118,131.687 482.785,133.187 475.5,135C 474.944,135.383 474.611,135.883 474.5,136.5C 472.143,136.337 469.81,136.503 467.5,137C 457.982,140.14 448.315,142.64 438.5,144.5C 438.389,143.883 438.056,143.383 437.5,143C 453.617,138.783 469.617,134.617 485.5,130.5C 489.322,128.878 493.322,127.878 497.5,127.5C 502.255,126.915 506.921,125.915 511.5,124.5 Z"/></g>
<g><path style="opacity:0.99" fill="#414141" d="M 512.5,134.5 C 512.833,134.5 513.167,134.5 513.5,134.5C 518.965,134.576 524.631,134.742 530.5,135C 531.05,136.845 532.05,138.345 533.5,139.5C 533.833,139.167 534.167,138.833 534.5,138.5C 533.189,137.742 532.689,136.742 533,135.5C 540.527,139.215 548.694,143.049 557.5,147C 556.29,148.039 555.29,149.206 554.5,150.5C 550.669,150.416 547.002,151.083 543.5,152.5C 540.138,152.93 537.305,151.93 535,149.5C 534.586,149.957 534.086,150.291 533.5,150.5C 532.094,149.049 530.594,147.716 529,146.5C 528.667,147.167 528.333,147.833 528,148.5C 526.071,145.148 523.404,143.815 520,144.5C 518.486,142.234 516.319,141.068 513.5,141C 512.687,139.686 511.687,138.519 510.5,137.5C 511.612,136.735 512.279,135.735 512.5,134.5 Z"/></g>
<g><path style="opacity:1" fill="#2f4f30" d="M 321.5,128.5 C 324.089,128.461 326.089,129.461 327.5,131.5C 326.178,131.67 325.011,131.337 324,130.5C 320.927,131.858 317.76,133.025 314.5,134C 313.167,136.333 313.167,138.667 314.5,141C 319.916,143.139 325.249,145.472 330.5,148C 329.906,148.464 329.239,148.631 328.5,148.5C 327.833,148.5 327.167,148.5 326.5,148.5C 322.657,145.749 318.323,143.749 313.5,142.5C 310.167,140.5 306.833,138.5 303.5,136.5C 302.694,135.272 301.694,134.272 300.5,133.5C 307.41,131.931 314.41,130.265 321.5,128.5 Z"/></g>
<g><path style="opacity:0.994" fill="#0c0c0c" d="M 497.5,130.5 C 497.19,133.713 497.523,136.713 498.5,139.5C 495.532,142.326 492.532,145.16 489.5,148C 491.47,151.16 494.136,152.326 497.5,151.5C 495.376,150.542 493.376,149.375 491.5,148C 492.552,146.881 493.719,146.381 495,146.5C 496.36,148.105 497.86,149.605 499.5,151C 502.112,151.639 504.446,152.806 506.5,154.5C 505.413,155.105 504.246,154.772 503,153.5C 502.383,154.449 502.549,155.282 503.5,156C 507.009,158.498 509.176,157.665 510,153.5C 510.309,154.766 510.809,155.933 511.5,157C 513.715,157.17 515.715,157.837 517.5,159C 516.529,160.204 515.529,160.704 514.5,160.5C 516.259,161.754 517.759,161.421 519,159.5C 519.347,161.18 520.347,162.18 522,162.5C 525.954,161.112 529.454,159.112 532.5,156.5C 536.395,155.538 540.061,154.204 543.5,152.5C 547.002,151.083 550.669,150.416 554.5,150.5C 561.815,149.864 569.148,149.364 576.5,149C 574.919,148.293 573.419,147.46 572,146.5C 571.667,147.167 571.333,147.833 571,148.5C 570.59,147.099 570.09,145.766 569.5,144.5C 606.182,156.699 625.182,182.199 626.5,221C 624.897,259.884 608.897,291.218 578.5,315C 551.631,332.772 523.964,334.105 495.5,319C 487.167,314.667 478.833,310.333 470.5,306C 451.856,293 441.023,275.166 438,252.5C 437.617,251.944 437.117,251.611 436.5,251.5C 438.282,242.076 439.282,232.41 439.5,222.5C 444.485,197.203 456.319,175.537 475,157.5C 474.77,150.529 474.603,143.529 474.5,136.5C 474.611,135.883 474.944,135.383 475.5,135C 482.785,133.187 490.118,131.687 497.5,130.5 Z"/></g>
<g><path style="opacity:1" fill="#557555" d="M 401.5,135.5 C 401.5,136.167 401.833,136.5 402.5,136.5C 402.827,141.544 402.494,146.544 401.5,151.5C 399.111,152.18 396.778,153.014 394.5,154C 395.094,154.464 395.761,154.631 396.5,154.5C 393.199,155.284 389.866,156.284 386.5,157.5C 386.443,156.391 386.11,155.391 385.5,154.5C 386.103,149.381 385.436,144.715 383.5,140.5C 389.298,138.414 395.298,136.747 401.5,135.5 Z"/></g>
<g><path style="opacity:1" fill="#517651" d="M 427.5,137.5 C 428.29,138.401 429.29,139.068 430.5,139.5C 432.382,140.751 434.382,141.918 436.5,143C 433.896,143.39 431.562,144.224 429.5,145.5C 427.833,145.5 426.167,145.5 424.5,145.5C 424.5,142.833 424.5,140.167 424.5,137.5C 425.5,137.5 426.5,137.5 427.5,137.5 Z"/></g>
<g><path style="opacity:1" fill="#090c09" d="M 383.5,140.5 C 385.436,144.715 386.103,149.381 385.5,154.5C 380.749,156.603 375.749,157.603 370.5,157.5C 368.022,156.117 365.355,155.117 362.5,154.5C 362.5,151.5 362.5,148.5 362.5,145.5C 369.544,144.111 376.544,142.444 383.5,140.5 Z"/></g>
<g><path style="opacity:1" fill="#b5b5b5" d="M 474.5,136.5 C 474.603,143.529 474.77,150.529 475,157.5C 456.319,175.537 444.485,197.203 439.5,222.5C 429.814,223.963 420.314,226.297 411,229.5C 403.834,228.767 396.667,228.1 389.5,227.5C 386.169,223.697 382.502,220.197 378.5,217C 381.432,215.855 384.432,215.022 387.5,214.5C 386.951,195.505 386.618,176.505 386.5,157.5C 389.866,156.284 393.199,155.284 396.5,154.5C 399.877,154.041 403.211,153.374 406.5,152.5C 406.833,152.5 407.167,152.5 407.5,152.5C 409.157,153.575 410.991,154.242 413,154.5C 416.821,153.392 420.655,152.392 424.5,151.5C 424.5,150.167 424.5,148.833 424.5,147.5C 424.833,147.5 425.167,147.5 425.5,147.5C 426.995,147.011 428.329,146.345 429.5,145.5C 432.57,145.632 435.57,145.299 438.5,144.5C 448.315,142.64 457.982,140.14 467.5,137C 469.81,136.503 472.143,136.337 474.5,136.5 Z"/></g>
<g><path style="opacity:1" fill="#1d1c1c" d="M 503.5,138.5 C 503.047,139.458 502.381,140.292 501.5,141C 503.301,143.389 505.468,143.889 508,142.5C 510.321,143.487 511.987,145.154 513,147.5C 513.333,147.167 513.667,146.833 514,146.5C 515.066,148.099 516.566,149.099 518.5,149.5C 520.003,148.948 521.669,148.948 523.5,149.5C 523.491,151.308 523.991,152.975 525,154.5C 526.889,153.903 528.722,153.569 530.5,153.5C 531.919,154.005 532.585,155.005 532.5,156.5C 529.454,159.112 525.954,161.112 522,162.5C 520.347,162.18 519.347,161.18 519,159.5C 517.759,161.421 516.259,161.754 514.5,160.5C 515.529,160.704 516.529,160.204 517.5,159C 515.715,157.837 513.715,157.17 511.5,157C 510.809,155.933 510.309,154.766 510,153.5C 509.176,157.665 507.009,158.498 503.5,156C 502.549,155.282 502.383,154.449 503,153.5C 504.246,154.772 505.413,155.105 506.5,154.5C 504.446,152.806 502.112,151.639 499.5,151C 497.86,149.605 496.36,148.105 495,146.5C 493.719,146.381 492.552,146.881 491.5,148C 493.376,149.375 495.376,150.542 497.5,151.5C 494.136,152.326 491.47,151.16 489.5,148C 492.532,145.16 495.532,142.326 498.5,139.5C 500.117,138.962 501.784,138.629 503.5,138.5 Z"/></g>
<g><path style="opacity:1" fill="#333333" d="M 512.5,134.5 C 512.279,135.735 511.612,136.735 510.5,137.5C 511.687,138.519 512.687,139.686 513.5,141C 516.319,141.068 518.486,142.234 520,144.5C 523.404,143.815 526.071,145.148 528,148.5C 528.333,147.833 528.667,147.167 529,146.5C 530.594,147.716 532.094,149.049 533.5,150.5C 534.086,150.291 534.586,149.957 535,149.5C 537.305,151.93 540.138,152.93 543.5,152.5C 540.061,154.204 536.395,155.538 532.5,156.5C 532.585,155.005 531.919,154.005 530.5,153.5C 528.722,153.569 526.889,153.903 525,154.5C 523.991,152.975 523.491,151.308 523.5,149.5C 521.669,148.948 520.003,148.948 518.5,149.5C 516.566,149.099 515.066,148.099 514,146.5C 513.667,146.833 513.333,147.167 513,147.5C 511.987,145.154 510.321,143.487 508,142.5C 505.468,143.889 503.301,143.389 501.5,141C 502.381,140.292 503.047,139.458 503.5,138.5C 506.382,136.892 509.382,135.559 512.5,134.5 Z"/></g>
<g><path style="opacity:1" fill="#323232" d="M 569.5,144.5 C 570.09,145.766 570.59,147.099 571,148.5C 571.333,147.833 571.667,147.167 572,146.5C 573.419,147.46 574.919,148.293 576.5,149C 569.148,149.364 561.815,149.864 554.5,150.5C 555.29,149.206 556.29,148.039 557.5,147C 548.694,143.049 540.527,139.215 533,135.5C 532.689,136.742 533.189,137.742 534.5,138.5C 534.167,138.833 533.833,139.167 533.5,139.5C 532.05,138.345 531.05,136.845 530.5,135C 524.631,134.742 518.965,134.576 513.5,134.5C 523.12,132.126 532.787,131.959 542.5,134C 551.866,136.823 560.866,140.323 569.5,144.5 Z"/></g>
<g><path style="opacity:1" fill="#919391" d="M 313.5,142.5 C 318.323,143.749 322.657,145.749 326.5,148.5C 323.032,149.811 319.366,150.811 315.5,151.5C 314.52,154.086 314.187,156.753 314.5,159.5C 313.511,154.025 313.178,148.358 313.5,142.5 Z"/></g>
<g><path style="opacity:1" fill="#0d2c10" d="M 425.5,147.5 C 425.167,147.5 424.833,147.5 424.5,147.5C 418.801,149.403 413.135,151.07 407.5,152.5C 407.167,152.5 406.833,152.5 406.5,152.5C 406.389,151.883 406.056,151.383 405.5,151C 410.279,150.074 414.946,148.741 419.5,147C 421.712,146.211 423.712,146.378 425.5,147.5 Z"/></g>
<g><path style="opacity:1" fill="#0a100a" d="M 424.5,147.5 C 424.5,148.833 424.5,150.167 424.5,151.5C 420.655,152.392 416.821,153.392 413,154.5C 410.991,154.242 409.157,153.575 407.5,152.5C 413.135,151.07 418.801,149.403 424.5,147.5 Z"/></g>
<g><path style="opacity:1" fill="#2f4d31" d="M 362.5,154.5 C 365.355,155.117 368.022,156.117 370.5,157.5C 371.609,158.29 372.942,158.79 374.5,159C 370.867,160.077 367.201,160.91 363.5,161.5C 363.007,159.194 362.674,156.861 362.5,154.5 Z"/></g>
<g><path style="opacity:1" fill="#112b13" d="M 385.5,154.5 C 386.11,155.391 386.443,156.391 386.5,157.5C 378.97,159.788 371.303,161.454 363.5,162.5C 363.5,162.167 363.5,161.833 363.5,161.5C 367.201,160.91 370.867,160.077 374.5,159C 372.942,158.79 371.609,158.29 370.5,157.5C 375.749,157.603 380.749,156.603 385.5,154.5 Z"/></g>
<g><path style="opacity:0.996" fill="#0c0c0c" d="M 386.5,157.5 C 386.618,176.505 386.951,195.505 387.5,214.5C 384.432,215.022 381.432,215.855 378.5,217C 382.502,220.197 386.169,223.697 389.5,227.5C 395.506,236.035 400.006,245.369 403,255.5C 407.737,256.469 412.57,256.803 417.5,256.5C 413.751,258.639 409.751,258.973 405.5,257.5C 411.348,302.358 397.348,339.525 363.5,369C 333.072,391.804 301.738,393.304 269.5,373.5C 271.745,374.635 274.078,375.135 276.5,375C 271.269,372.769 266.269,370.103 261.5,367C 262.833,366.667 264.167,366.333 265.5,366C 263.35,364.41 261.017,363.743 258.5,364C 259.451,364.718 259.617,365.551 259,366.5C 256.219,364.46 253.219,362.793 250,361.5C 249.601,361.728 249.435,362.062 249.5,362.5C 233.62,353.102 223.12,339.435 218,321.5C 215.138,309.594 214.305,297.594 215.5,285.5C 215.145,284.478 214.478,283.811 213.5,283.5C 214.209,282.596 215.209,282.263 216.5,282.5C 218.653,271.552 221.653,260.886 225.5,250.5C 233.829,233.687 245.162,219.187 259.5,207C 263.483,203.841 267.817,201.341 272.5,199.5C 274.19,200.103 275.69,201.103 277,202.5C 277.333,201.833 277.667,201.167 278,200.5C 280.059,204.355 283.059,206.022 287,205.5C 292.927,209.215 299.094,212.548 305.5,215.5C 308.259,214.121 310.925,212.787 313.5,211.5C 315.786,211.405 317.786,210.738 319.5,209.5C 322.237,208.969 324.904,208.136 327.5,207C 336.887,205.608 346.22,205.108 355.5,205.5C 358.138,206.492 360.805,207.492 363.5,208.5C 363.87,193.526 363.87,178.526 363.5,163.5C 363.5,163.167 363.5,162.833 363.5,162.5C 371.303,161.454 378.97,159.788 386.5,157.5 Z"/></g>
<g><path style="opacity:1" fill="#949494" d="M 554.5,165.5 C 588.829,165.326 607.996,182.326 612,216.5C 613.657,257.031 597.157,287.531 562.5,308C 537.3,318.822 515.8,313.988 498,293.5C 488.369,278.244 484.702,261.577 487,243.5C 491.12,216.743 503.62,194.909 524.5,178C 533.802,171.84 543.802,167.673 554.5,165.5 Z"/></g>
<g><path style="opacity:0.895" fill="#1d1d1d" d="M 256.5,183.5 C 257.167,184.5 257.833,185.5 258.5,186.5C 257.977,188.708 256.644,190.208 254.5,191C 244.448,193.409 234.448,195.909 224.5,198.5C 223.262,198.19 223.262,197.69 224.5,197C 231.805,193.681 238.805,189.848 245.5,185.5C 246.152,186.725 247.319,187.392 249,187.5C 251.253,187.369 253.419,186.869 255.5,186C 256.252,185.329 256.586,184.496 256.5,183.5 Z"/></g>
<g><path style="opacity:1" fill="#b3b4b3" d="M 326.5,148.5 C 327.167,148.5 327.833,148.5 328.5,148.5C 338.475,153.223 348.475,158.057 358.5,163C 360.134,163.494 361.801,163.66 363.5,163.5C 363.87,178.526 363.87,193.526 363.5,208.5C 360.805,207.492 358.138,206.492 355.5,205.5C 351.595,203.459 347.762,201.125 344,198.5C 343.667,198.833 343.333,199.167 343,199.5C 322.758,187.228 301.925,185.895 280.5,195.5C 277.318,195.948 274.651,197.282 272.5,199.5C 267.817,201.341 263.483,203.841 259.5,207C 245.162,219.187 233.829,233.687 225.5,250.5C 214.864,245.516 204.197,240.516 193.5,235.5C 193.5,232.167 193.5,228.833 193.5,225.5C 193.211,221.894 193.544,218.394 194.5,215C 204.177,208.667 214.177,203.167 224.5,198.5C 234.448,195.909 244.448,193.409 254.5,191C 256.644,190.208 257.977,188.708 258.5,186.5C 263.122,178.809 267.789,170.643 272.5,162C 278.717,160.55 284.884,159.05 291,157.5C 291.169,164.524 291.669,171.524 292.5,178.5C 295.653,179.579 298.653,180.912 301.5,182.5C 305.804,181.285 310.138,180.285 314.5,179.5C 314.5,172.833 314.5,166.167 314.5,159.5C 314.187,156.753 314.52,154.086 315.5,151.5C 319.366,150.811 323.032,149.811 326.5,148.5 Z"/></g>
<g><path style="opacity:1" fill="#2c2c2c" d="M 319.5,209.5 C 317.786,210.738 315.786,211.405 313.5,211.5C 303.066,207.632 292.733,203.465 282.5,199C 280.627,198.047 280.294,196.88 281.5,195.5C 283.564,195.243 285.731,195.243 288,195.5C 298.454,201.341 308.954,206.007 319.5,209.5 Z"/></g>
<g><path style="opacity:1" fill="#3b3b3b" d="M 355.5,205.5 C 346.22,205.108 336.887,205.608 327.5,207C 324.904,208.136 322.237,208.969 319.5,209.5C 308.954,206.007 298.454,201.341 288,195.5C 285.731,195.243 283.564,195.243 281.5,195.5C 281.167,195.5 280.833,195.5 280.5,195.5C 301.925,185.895 322.758,187.228 343,199.5C 343.333,199.167 343.667,198.833 344,198.5C 347.762,201.125 351.595,203.459 355.5,205.5 Z"/></g>
<g><path style="opacity:1" fill="#1d1d1d" d="M 280.5,195.5 C 280.833,195.5 281.167,195.5 281.5,195.5C 280.294,196.88 280.627,198.047 282.5,199C 292.733,203.465 303.066,207.632 313.5,211.5C 310.925,212.787 308.259,214.121 305.5,215.5C 299.094,212.548 292.927,209.215 287,205.5C 283.059,206.022 280.059,204.355 278,200.5C 277.667,201.167 277.333,201.833 277,202.5C 275.69,201.103 274.19,200.103 272.5,199.5C 274.651,197.282 277.318,195.948 280.5,195.5 Z"/></g>
<g><path style="opacity:1" fill="#919191" d="M 193.5,225.5 C 193.5,228.833 193.5,232.167 193.5,235.5C 193.5,236.167 193.5,236.833 193.5,237.5C 193.636,243.037 190.969,246.537 185.5,248C 177.216,251.906 168.549,253.239 159.5,252C 150.044,246.06 140.044,241.06 129.5,237C 128.107,235.829 127.273,234.329 127,232.5C 126.502,229.518 126.335,226.518 126.5,223.5C 125.928,219.921 126.095,216.255 127,212.5C 144.371,216.608 161.871,220.275 179.5,223.5C 184.192,221.658 188.359,218.991 192,215.5C 192.179,219.025 192.679,222.359 193.5,225.5 Z"/></g>
<g><path style="opacity:1" fill="#949494" d="M 335.5,221.5 C 365.595,222.304 384.428,237.304 392,266.5C 396.327,304.658 383.493,335.491 353.5,359C 337.275,369.912 319.608,373.245 300.5,369C 284.309,362.508 273.142,351.008 267,334.5C 260.493,309.057 263.826,285.057 277,262.5C 290.063,239.597 309.563,225.931 335.5,221.5 Z"/></g>
<g><path style="opacity:0.999" fill="#979797" d="M 439.5,222.5 C 439.282,232.41 438.282,242.076 436.5,251.5C 436.167,251.5 435.833,251.5 435.5,251.5C 433.219,251.077 431.552,251.744 430.5,253.5C 426.878,253.322 423.544,253.989 420.5,255.5C 419.791,256.404 418.791,256.737 417.5,256.5C 412.57,256.803 407.737,256.469 403,255.5C 400.006,245.369 395.506,236.035 389.5,227.5C 396.667,228.1 403.834,228.767 411,229.5C 420.314,226.297 429.814,223.963 439.5,222.5 Z"/></g>
<g><path style="opacity:1" fill="#0c0c0c" d="M 551.5,226.5 C 560.843,228.683 564.01,234.35 561,243.5C 558.011,251.147 552.511,253.98 544.5,252C 538.18,245.552 537.847,238.719 543.5,231.5C 545.928,229.295 548.595,227.628 551.5,226.5 Z"/></g>
<g><path style="opacity:1" fill="#b3b3b3" d="M 126.5,223.5 C 126.335,226.518 126.502,229.518 127,232.5C 127.273,234.329 128.107,235.829 129.5,237C 140.044,241.06 150.044,246.06 159.5,252C 168.549,253.239 177.216,251.906 185.5,248C 190.969,246.537 193.636,243.037 193.5,237.5C 203.631,242.066 213.631,246.899 223.5,252C 209.039,255.925 194.539,259.758 180,263.5C 149.068,248.951 118.568,233.784 88.5,218C 85.716,215.92 86.0493,215.253 89.5,216C 96.3745,219.789 103.374,223.289 110.5,226.5C 115.762,225.068 121.095,224.068 126.5,223.5 Z"/></g>
<g><path style="opacity:0.492" fill="#3f3f3f" d="M 435.5,251.5 C 434.22,252.931 432.553,253.598 430.5,253.5C 431.552,251.744 433.219,251.077 435.5,251.5 Z"/></g>
<g><path style="opacity:0.012" fill="#1a1a1a" d="M 430.5,253.5 C 427.456,255.011 424.122,255.678 420.5,255.5C 423.544,253.989 426.878,253.322 430.5,253.5 Z"/></g>
<g><path style="opacity:0.882" fill="#333333" d="M 78.5,276.5 C 73.8333,273.833 69.1667,271.167 64.5,268.5C 64.369,267.761 64.5357,267.094 65,266.5C 69.9101,269.357 74.9101,272.024 80,274.5C 80.3076,273.692 80.8076,273.025 81.5,272.5C 82.5896,273.391 82.5896,274.391 81.5,275.5C 80.3636,275.964 79.3636,276.298 78.5,276.5 Z"/></g>
<g><path style="opacity:1" fill="#727272" d="M 86.5,252.5 C 87.4682,254.607 87.8016,256.941 87.5,259.5C 96.8071,257.671 106.14,256.171 115.5,255C 121.342,261.363 123.676,268.863 122.5,277.5C 124.547,277.511 126.547,277.844 128.5,278.5C 135.95,276.602 143.45,274.936 151,273.5C 152.873,274.868 154.54,276.534 156,278.5C 159.093,284.861 160.093,291.527 159,298.5C 158.535,299.931 157.701,301.097 156.5,302C 146.574,306.254 136.241,308.754 125.5,309.5C 123.748,307.754 122.415,305.754 121.5,303.5C 126.416,309.127 130.249,308.46 133,301.5C 133.473,296.378 132.806,291.378 131,286.5C 128.58,282.376 125.08,280.543 120.5,281C 119.074,283.045 118.074,285.212 117.5,287.5C 117.38,286.414 116.713,285.747 115.5,285.5C 108.096,287.892 100.596,289.892 93,291.5C 91.0999,290.923 89.2666,290.256 87.5,289.5C 87.5,288.833 87.1667,288.5 86.5,288.5C 86.369,287.761 86.5357,287.094 87,286.5C 89.2989,288.536 91.7989,288.869 94.5,287.5C 96.104,285.102 97.104,282.435 97.5,279.5C 97.0851,273.635 95.0851,268.468 91.5,264C 85.486,261.012 81.986,262.845 81,269.5C 80.1894,264.783 81.8561,261.116 86,258.5C 86.4955,256.527 86.6621,254.527 86.5,252.5 Z"/></g>
<g><path style="opacity:1" fill="#0d0d0d" d="M 121.5,303.5 C 118.331,298.654 116.998,293.321 117.5,287.5C 118.074,285.212 119.074,283.045 120.5,281C 125.08,280.543 128.58,282.376 131,286.5C 132.806,291.378 133.473,296.378 133,301.5C 130.249,308.46 126.416,309.127 121.5,303.5 Z"/></g>
<g><path style="opacity:1" fill="#0c0c0c" d="M 326.5,284.5 C 339.025,283.496 343.525,289.163 340,301.5C 334.908,310.432 328.241,312.099 320,306.5C 316.405,297.336 318.572,290.003 326.5,284.5 Z"/></g>
<g><path style="opacity:1" fill="#989898" d="M 117.5,287.5 C 116.998,293.321 118.331,298.654 121.5,303.5C 122.415,305.754 123.748,307.754 125.5,309.5C 112.571,304.035 99.9046,298.035 87.5,291.5C 87.5,290.833 87.5,290.167 87.5,289.5C 89.2666,290.256 91.0999,290.923 93,291.5C 100.596,289.892 108.096,287.892 115.5,285.5C 116.713,285.747 117.38,286.414 117.5,287.5 Z"/></g>
<g><path style="opacity:1" fill="#505050" d="M 454.5,285.5 C 456.423,285.795 458.09,286.628 459.5,288C 457.171,288.396 455.505,287.562 454.5,285.5 Z"/></g>
<g><path style="opacity:0.122" fill="#262626" d="M 208.5,284.5 C 204.266,286.955 199.6,288.289 194.5,288.5C 198.895,286.565 203.562,285.231 208.5,284.5 Z"/></g>
<g><path style="opacity:0.086" fill="#0d0d0d" d="M 86.5,288.5 C 87.1667,288.5 87.5,288.833 87.5,289.5C 87.5,290.167 87.5,290.833 87.5,291.5C 86.8333,291.5 86.1667,291.5 85.5,291.5C 86.1098,290.609 86.4431,289.609 86.5,288.5 Z"/></g>
<g><path style="opacity:0.004" fill="#111111" d="M 194.5,288.5 C 194.5,290.5 193.5,291.5 191.5,291.5C 192.167,290.167 193.167,289.167 194.5,288.5 Z"/></g>
<g><path style="opacity:0.29" fill="#3c3c3c" d="M 80.5,292.5 C 76.9019,294.692 72.9019,295.692 68.5,295.5C 72.1629,293.584 76.1629,292.584 80.5,292.5 Z"/></g>
<g><path style="opacity:1" fill="#b3b3b3" d="M 85.5,291.5 C 86.1667,291.5 86.8333,291.5 87.5,291.5C 99.9046,298.035 112.571,304.035 125.5,309.5C 128.274,311.064 130.941,312.897 133.5,315C 148.228,322.198 162.894,329.698 177.5,337.5C 167.304,340.957 156.971,343.957 146.5,346.5C 140.142,344.489 134.142,341.655 128.5,338C 127,337.5 125.5,337 124,336.5C 123.235,336.57 122.735,336.903 122.5,337.5C 120.014,336.538 120.014,335.705 122.5,335C 117.881,332.158 113.214,330.324 108.5,329.5C 107.833,327.5 106.5,326.167 104.5,325.5C 103.167,326.833 101.833,326.833 100.5,325.5C 98.1662,321.724 94.8328,319.391 90.5,318.5C 79.0915,312.114 67.4248,306.114 55.5,300.5C 58.4328,299.017 61.4328,297.683 64.5,296.5C 65.5676,295.566 66.901,295.232 68.5,295.5C 72.9019,295.692 76.9019,294.692 80.5,292.5C 81.9187,291.549 83.5853,291.216 85.5,291.5 Z"/></g>
<g><path style="opacity:0.039" fill="#252525" d="M 64.5,296.5 C 61.4328,297.683 58.4328,299.017 55.5,300.5C 54.6618,300.842 54.3284,301.508 54.5,302.5C 53.2006,300.847 53.5339,299.347 55.5,298C 58.3508,296.711 61.3508,296.211 64.5,296.5 Z"/></g>
<g><path style="opacity:0.101" fill="#232323" d="M 187.5,293.5 C 186.063,294.725 184.396,295.725 182.5,296.5C 181.507,301.12 181.173,305.786 181.5,310.5C 180.35,305.684 180.184,300.684 181,295.5C 182.897,293.984 185.064,293.317 187.5,293.5 Z"/></g>
<g><path style="opacity:0.106" fill="#2a2a2a" d="M 55.5,303.5 C 57.8185,303.992 59.8185,304.992 61.5,306.5C 58.911,306.539 56.911,305.539 55.5,303.5 Z"/></g>
<g><path style="opacity:0.067" fill="#282828" d="M 181.5,311.5 C 181.5,311.167 181.5,310.833 181.5,310.5C 183.97,310.654 185.97,311.654 187.5,313.5C 185.315,313.296 183.315,312.63 181.5,311.5 Z"/></g>
<g><path style="opacity:0.933" fill="#888888" d="M 55.5,300.5 C 67.4248,306.114 79.0915,312.114 90.5,318.5C 87.7559,319.491 85.0893,319.157 82.5,317.5C 80.847,317.34 79.5137,316.674 78.5,315.5C 77.4863,314.326 76.153,313.66 74.5,313.5C 69.6805,311.926 65.3472,309.593 61.5,306.5C 59.8185,304.992 57.8185,303.992 55.5,303.5C 54.8333,303.5 54.5,303.167 54.5,302.5C 54.3284,301.508 54.6618,300.842 55.5,300.5 Z"/></g>
<g><path style="opacity:0.043" fill="#292929" d="M 74.5,313.5 C 76.153,313.66 77.4863,314.326 78.5,315.5C 76.6203,315.771 75.287,315.104 74.5,313.5 Z"/></g>
<g><path style="opacity:0.999" fill="#b0b0b0" d="M 181.5,311.5 C 183.315,312.63 185.315,313.296 187.5,313.5C 189.544,314.508 191.544,315.508 193.5,316.5C 194.287,318.104 195.62,318.771 197.5,318.5C 198.492,318.328 199.158,318.662 199.5,319.5C 201.336,321.588 203.669,322.921 206.5,323.5C 207.492,323.328 208.158,323.662 208.5,324.5C 210.167,325.833 211.833,327.167 213.5,328.5C 202.885,331.372 192.218,334.038 181.5,336.5C 181.219,327.976 181.219,319.642 181.5,311.5 Z"/></g>
<g><path style="opacity:0.169" fill="#373737" d="M 193.5,316.5 C 195.153,316.66 196.486,317.326 197.5,318.5C 195.62,318.771 194.287,318.104 193.5,316.5 Z"/></g>
<g><path style="opacity:0.098" fill="#1f1f1f" d="M 199.5,319.5 C 202.331,320.079 204.664,321.412 206.5,323.5C 203.669,322.921 201.336,321.588 199.5,319.5 Z"/></g>
<g><path style="opacity:0.196" fill="#353535" d="M 208.5,324.5 C 212.111,324.639 214.777,326.306 216.5,329.5C 214.131,333.638 210.465,335.304 205.5,334.5C 208.215,332.928 211.215,331.928 214.5,331.5C 214.737,330.209 214.404,329.209 213.5,328.5C 211.833,327.167 210.167,325.833 208.5,324.5 Z"/></g>
<g><path style="opacity:0.916" fill="#737373" d="M 82.5,317.5 C 85.0893,319.157 87.7559,319.491 90.5,318.5C 94.8328,319.391 98.1662,321.724 100.5,325.5C 101.833,326.833 103.167,326.833 104.5,325.5C 106.5,326.167 107.833,327.5 108.5,329.5C 113.214,330.324 117.881,332.158 122.5,335C 120.014,335.705 120.014,336.538 122.5,337.5C 122.5,337.833 122.5,338.167 122.5,338.5C 108.875,332.021 95.5414,325.021 82.5,317.5 Z"/></g>
<g><path style="opacity:0.014" fill="#1e1e1e" d="M 198.5,336.5 C 194.736,337.992 190.736,338.992 186.5,339.5C 190.076,337.272 194.076,336.272 198.5,336.5 Z"/></g>
<g><path style="opacity:0.173" fill="#242424" d="M 178.5,341.5 C 175.829,343.118 172.829,343.785 169.5,343.5C 172.219,342.087 175.219,341.42 178.5,341.5 Z"/></g>
<g><path style="opacity:0.451" fill="#3a3a3a" d="M 166.5,344.5 C 164.786,345.738 162.786,346.405 160.5,346.5C 161.918,344.692 163.918,344.025 166.5,344.5 Z"/></g>
<g><path style="opacity:0.298" fill="#414141" d="M 130.5,342.5 C 131.873,342.343 133.207,342.51 134.5,343C 136.903,344.853 139.236,346.686 141.5,348.5C 137.313,347.244 133.646,345.244 130.5,342.5 Z"/></g>
<g><path style="opacity:0.106" fill="#242424" d="M 159.5,346.5 C 156.781,347.913 153.781,348.58 150.5,348.5C 153.219,347.087 156.219,346.42 159.5,346.5 Z"/></g>
<g><path style="opacity:0.682" fill="#282828" d="M 269.5,373.5 C 262.215,370.859 255.548,367.193 249.5,362.5C 249.435,362.062 249.601,361.728 250,361.5C 253.219,362.793 256.219,364.46 259,366.5C 259.617,365.551 259.451,364.718 258.5,364C 261.017,363.743 263.35,364.41 265.5,366C 264.167,366.333 262.833,366.667 261.5,367C 266.269,370.103 271.269,372.769 276.5,375C 274.078,375.135 271.745,374.635 269.5,373.5 Z"/></g>
</svg>
