<?xml version="1.0" standalone="no"?>
<!DOCTYPE svg PUBLIC "-//W3C//DTD SVG 20010904//EN"
 "http://www.w3.org/TR/2001/REC-SVG-20010904/DTD/svg10.dtd">
<svg version="1.0" xmlns="http://www.w3.org/2000/svg"
 width="1024.000000pt" height="1024.000000pt" viewBox="0 0 1024.000000 1024.000000"
 preserveAspectRatio="xMidYMid meet">

<g transform="translate(0.000000,1024.000000) scale(0.100000,-0.100000)"
fill="#000000" stroke="none">
<path d="M4774 7320 c-56 -22 -79 -93 -49 -149 19 -38 60 -51 156 -51 l79 0 0
-53 0 -54 -177 -6 c-812 -28 -1664 -340 -2313 -846 -257 -201 -565 -506 -691
-686 -147 -208 -218 -485 -249 -960 -17 -254 -4 -319 84 -413 43 -46 139 -102
152 -89 4 3 0 37 -7 74 -18 93 -16 331 5 478 28 195 84 473 116 575 52 169
146 296 257 348 l58 27 2894 3 2894 2 41 -24 c23 -13 63 -49 89 -80 l48 -56
-213 -2 -213 -3 33 -20 c258 -154 407 -301 511 -505 116 -225 160 -507 116
-736 -8 -43 -13 -79 -11 -82 10 -10 80 23 125 58 35 28 59 59 83 107 l33 68
-1 185 c-1 224 -24 431 -69 626 -71 301 -174 463 -510 799 -427 428 -920 727
-1564 949 -308 107 -764 191 -1096 203 -106 4 -173 10 -177 17 -4 6 -8 30 -8
54 l0 42 85 0 c96 0 134 14 153 55 16 35 15 60 -3 95 -30 57 -46 60 -357 59
-156 0 -293 -4 -304 -9z m881 -584 c223 -30 309 -46 465 -86 183 -46 431 -133
418 -146 -3 -2 -20 1 -39 7 -114 34 -412 85 -700 120 -221 27 -771 38 -1008
20 -486 -38 -895 -134 -1341 -318 -151 -62 -210 -101 -210 -137 0 -24 41 -66
64 -66 12 0 85 27 161 61 254 110 553 205 815 258 165 33 444 71 575 78 106 5
123 4 138 -11 21 -21 22 -59 2 -76 -8 -7 -67 -16 -132 -21 -297 -23 -657 -96
-914 -185 -289 -101 -630 -282 -835 -445 l-62 -49 -341 0 -342 0 93 83 c90 79
221 187 264 217 380 264 691 420 1089 544 313 97 541 140 960 180 22 2 186 3
365 1 284 -2 349 -6 515 -29z m2002 -854 c26 -21 73 -62 103 -90 l55 -51 -393
-1 c-338 0 -399 2 -427 16 -39 18 -60 60 -50 103 13 60 19 61 356 61 l307 0
49 -38z"/>
<path d="M2723 5315 c-156 -28 -309 -94 -430 -184 -268 -200 -413 -498 -413
-851 0 -236 80 -464 230 -652 53 -66 170 -174 230 -211 l35 -22 -263 -5 c-262
-5 -264 -5 -283 -29 -29 -36 -25 -92 10 -130 16 -17 37 -31 48 -32 10 0 1451
-1 3203 -2 2540 -1 3190 1 3207 11 59 33 67 124 14 161 -27 19 -46 21 -277 23
l-248 3 42 27 c293 194 482 607 442 968 -14 132 -42 237 -86 329 -65 138 -175
280 -292 376 -77 64 -249 154 -359 189 -524 164 -1089 -143 -1262 -686 -115
-361 -25 -753 240 -1042 29 -32 80 -78 113 -103 34 -26 65 -50 70 -54 5 -5
-722 -7 -1617 -6 -894 1 -1623 4 -1619 7 4 3 33 23 65 44 192 128 361 427 398
702 40 303 -50 596 -258 836 -145 168 -369 294 -593 334 -94 17 -252 16 -347
-1z m349 -265 c221 -49 421 -205 519 -406 57 -117 80 -217 80 -349 0 -121 -10
-183 -40 -271 -56 -157 -189 -322 -326 -402 -184 -107 -422 -136 -626 -76
-174 52 -356 197 -448 357 -87 152 -120 362 -87 541 69 364 377 624 741 625
63 0 132 -7 187 -19z m4383 -4 c142 -38 290 -136 395 -262 49 -58 122 -205
145 -289 24 -93 30 -246 12 -345 -26 -152 -86 -270 -197 -392 -85 -93 -182
-156 -306 -198 -86 -29 -116 -34 -229 -38 -111 -4 -144 -1 -215 17 -261 65
-454 244 -541 502 -44 130 -51 291 -20 424 33 139 106 277 194 367 108 112
253 193 397 224 83 17 283 12 365 -10z"/>
<path d="M2718 4866 c-100 -29 -177 -77 -248 -152 -195 -208 -222 -506 -69
-745 81 -126 170 -196 309 -242 99 -33 179 -41 274 -28 203 28 360 141 452
323 149 296 27 666 -267 806 -46 22 -108 45 -137 51 -89 18 -227 13 -314 -13z
m320 -276 c109 -55 171 -148 180 -271 10 -137 -54 -251 -172 -309 -57 -29 -75
-32 -145 -32 -96 0 -163 27 -227 89 -67 65 -89 122 -89 228 1 115 25 175 101
244 66 60 116 79 215 80 65 1 84 -3 137 -29z"/>
<path d="M2852 4447 c-46 -14 -98 -76 -107 -126 -17 -104 93 -203 190 -171 81
27 134 104 120 176 -11 62 -96 136 -152 133 -10 -1 -33 -6 -51 -12z"/>
<path d="M7085 4871 c-160 -46 -291 -155 -364 -303 -68 -137 -84 -254 -55
-396 24 -121 73 -212 163 -302 122 -124 246 -173 431 -172 342 2 609 291 586
632 -11 161 -61 274 -172 387 -77 78 -165 129 -279 158 -79 20 -233 19 -310
-4z m279 -272 c77 -28 146 -94 180 -169 25 -55 28 -71 24 -143 -2 -60 -9 -95
-26 -129 -98 -200 -363 -246 -519 -89 -69 70 -88 120 -87 231 1 108 14 148 70
210 92 101 233 136 358 89z"/>
<path d="M7204 4449 c-18 -5 -48 -27 -68 -49 -33 -37 -36 -45 -36 -100 0 -53
4 -63 32 -96 43 -49 81 -64 137 -54 110 20 167 120 121 214 -34 71 -113 107
-186 85z"/>
<path d="M6565 5303 c-62 -8 -142 -36 -187 -64 -61 -40 -89 -70 -321 -361
-204 -256 -248 -301 -326 -340 l-46 -23 -600 0 c-565 0 -603 1 -649 19 -67 26
-107 65 -264 256 -75 91 -187 224 -249 297 -104 121 -119 135 -189 169 -65 33
-87 38 -162 42 -54 3 -83 1 -77 -5 6 -5 42 -33 82 -61 89 -65 233 -216 294
-307 97 -145 154 -292 185 -469 29 -166 7 -409 -51 -558 -7 -17 48 -18 1070
-18 1022 0 1077 1 1070 18 -4 9 -18 67 -33 127 -22 93 -26 133 -25 260 0 156
14 249 55 370 32 94 116 252 180 336 69 91 197 213 279 266 33 21 59 41 59 46
0 7 -40 7 -95 0z"/>
<path d="M1467 3389 c-40 -23 -59 -98 -36 -142 44 -87 177 -68 195 28 8 42
-18 98 -52 114 -31 14 -83 14 -107 0z"/>
<path d="M8562 3375 c-36 -30 -47 -66 -32 -111 39 -118 201 -87 200 38 -1 83
-103 128 -168 73z"/>
</g>
</svg>
